<?xml version="1.0" encoding="UTF-8"?>
<svg xmlns="http://www.w3.org/2000/svg" xmlns:xlink="http://www.w3.org/1999/xlink" width="14pt" height="14pt" viewBox="0 0 14 14" version="1.1">
<g id="surface1">
<path style=" stroke:none;fill-rule:nonzero;fill:rgb(0%,0%,0%);fill-opacity:1;" d="M 8.910156 0 L 8.910156 5.089844 L 10.816406 5.089844 L 10.816406 6.363281 L 3.183594 6.363281 L 3.183594 5.089844 L 5.089844 5.089844 L 5.089844 0 L 0 0 L 0 5.089844 L 1.910156 5.089844 L 1.910156 7.636719 L 6.363281 7.636719 L 6.363281 8.910156 L 4.453125 8.910156 L 4.453125 14 L 9.546875 14 L 9.546875 8.910156 L 7.636719 8.910156 L 7.636719 7.636719 L 12.089844 7.636719 L 12.089844 5.089844 L 14 5.089844 L 14 0 Z M 1.273438 3.816406 L 1.273438 1.273438 L 3.816406 1.273438 L 3.816406 3.816406 Z M 8.273438 10.183594 L 8.273438 12.726562 L 5.726562 12.726562 L 5.726562 10.183594 Z M 12.726562 3.816406 L 10.183594 3.816406 L 10.183594 1.273438 L 12.726562 1.273438 Z M 12.726562 3.816406 "/>
</g>
</svg>
