<?xml version="1.0" encoding="UTF-8"?>
<svg xmlns="http://www.w3.org/2000/svg" xmlns:xlink="http://www.w3.org/1999/xlink" width="14pt" height="14pt" viewBox="0 0 14 14" version="1.1">
<g id="surface1">
<path style=" stroke:none;fill-rule:nonzero;fill:rgb(0%,0%,0%);fill-opacity:1;" d="M 6.804688 6.464844 C 10.566406 6.464844 13.609375 5.195312 13.609375 3.628906 C 13.609375 2.0625 10.566406 0.792969 6.804688 0.792969 C 3.046875 0.792969 0 2.0625 0 3.628906 C 0 5.195312 3.046875 6.464844 6.804688 6.464844 Z M 6.804688 11.003906 C 4.207031 11.003906 1.910156 10.375 0.464844 9.410156 C 0.167969 9.730469 0 10.070312 0 10.4375 C 0 12 3.046875 13.269531 6.804688 13.269531 C 10.566406 13.269531 13.609375 12 13.609375 10.4375 C 13.609375 10.070312 13.445312 9.730469 13.148438 9.414062 C 11.699219 10.375 9.402344 11.003906 6.804688 11.003906 Z M 6.804688 7.597656 C 4.207031 7.597656 1.910156 6.972656 0.464844 6.007812 C 0.167969 6.328125 0 6.667969 0 7.035156 C 0 8.597656 3.046875 9.867188 6.804688 9.867188 C 10.566406 9.867188 13.609375 8.597656 13.609375 7.035156 C 13.609375 6.667969 13.445312 6.328125 13.148438 6.011719 C 11.699219 6.972656 9.402344 7.597656 6.804688 7.597656 Z M 6.804688 7.597656 "/>
</g>
</svg>
