<?xml version="1.0" encoding="UTF-8"?>
<svg xmlns="http://www.w3.org/2000/svg" xmlns:xlink="http://www.w3.org/1999/xlink" width="12pt" height="12pt" viewBox="0 0 12 12" version="1.1">
<g id="surface1">
<path style=" stroke:none;fill-rule:nonzero;fill:rgb(0%,0%,0%);fill-opacity:1;" d="M 7.636719 0 L 7.636719 4.363281 L 9.273438 4.363281 L 9.273438 5.453125 L 2.726562 5.453125 L 2.726562 4.363281 L 4.363281 4.363281 L 4.363281 0 L 0 0 L 0 4.363281 L 1.636719 4.363281 L 1.636719 6.546875 L 5.453125 6.546875 L 5.453125 7.636719 L 3.816406 7.636719 L 3.816406 12 L 8.183594 12 L 8.183594 7.636719 L 6.546875 7.636719 L 6.546875 6.546875 L 10.363281 6.546875 L 10.363281 4.363281 L 12 4.363281 L 12 0 Z M 1.089844 3.273438 L 1.089844 1.089844 L 3.273438 1.089844 L 3.273438 3.273438 Z M 7.089844 8.726562 L 7.089844 10.910156 L 4.90625 10.910156 L 4.90625 8.726562 Z M 10.910156 3.273438 L 8.726562 3.273438 L 8.726562 1.089844 L 10.910156 1.089844 Z M 10.910156 3.273438 "/>
</g>
</svg>
