<?xml version="1.0" encoding="UTF-8"?>
<svg xmlns="http://www.w3.org/2000/svg" xmlns:xlink="http://www.w3.org/1999/xlink" width="16pt" height="16pt" viewBox="0 0 16 16" version="1.1">
<g id="surface1">
<path style=" stroke:none;fill-rule:nonzero;fill:rgb(21.568627%,27.843137%,30.980392%);fill-opacity:1;" d="M 11.632812 9.699219 C 10.734375 8.800781 9.265625 8.800781 8.367188 9.699219 L 7.035156 11.035156 C 6.464844 11.601562 5.535156 11.601562 4.964844 11.035156 C 4.398438 10.464844 4.398438 9.535156 4.964844 8.964844 L 6.464844 7.464844 L 5.535156 6.535156 L 4.035156 8.035156 C 2.933594 9.132812 2.933594 10.898438 4.035156 11.964844 C 5.132812 13.066406 6.898438 13.066406 7.964844 11.964844 L 9.300781 10.632812 C 9.699219 10.265625 10.300781 10.265625 10.699219 10.632812 C 11.066406 11.035156 11.066406 11.632812 10.699219 12.035156 L 9 13.734375 L 9.933594 14.667969 L 11.632812 12.964844 C 12.535156 12.066406 12.535156 10.601562 11.632812 9.699219 Z M 11.632812 9.699219 "/>
<path style=" stroke:none;fill-rule:nonzero;fill:rgb(0.784314%,46.666667%,74.117647%);fill-opacity:1;" d="M 5.367188 7.632812 C 4.433594 6.699219 4.433594 5.199219 5.367188 4.300781 L 7.632812 2.035156 C 8.566406 1.101562 10.066406 1.101562 10.964844 2.035156 C 11.898438 2.964844 11.898438 4.464844 10.964844 5.367188 L 8.699219 7.632812 C 7.765625 8.566406 6.300781 8.566406 5.367188 7.632812 Z M 5.367188 7.632812 "/>
<path style=" stroke:none;fill-rule:nonzero;fill:rgb(70.196078%,89.803922%,98.823529%);fill-opacity:1;" d="M 10.667969 3.667969 C 10.667969 4.402344 10.070312 5 9.332031 5 C 8.597656 5 8 4.402344 8 3.667969 C 8 2.929688 8.597656 2.332031 9.332031 2.332031 C 10.070312 2.332031 10.667969 2.929688 10.667969 3.667969 Z M 10.667969 3.667969 "/>
</g>
</svg>
